<svg width="465" height="530" viewBox="0 0 465 530" fill="none" xmlns="http://www.w3.org/2000/svg">
<path d="M400.004 0.00402832C410.613 0.00402832 420.787 4.21831 428.288 11.7198C435.79 19.2212 440.004 29.3954 440.004 40.004V260.004H400.004V40.004H40.0039V480.004H260.004V520.004H40.0039C29.3952 520.004 19.2211 515.79 11.7196 508.288C4.21817 500.787 0.00390625 490.613 0.00390625 480.004V40.004C0.00390625 29.3954 4.21817 19.2212 11.7196 11.7198C19.2211 4.21831 29.3952 0.00402832 40.0039 0.00402832H400.004Z" fill="#FFCC00" stroke="black" stroke-width="0.008"/>
<path d="M297.904 229.064H115.584C111.452 229.064 107.489 227.423 104.567 224.501C101.645 221.579 100.004 217.616 100.004 213.484C100.004 209.352 101.645 205.389 104.567 202.467C107.489 199.545 111.452 197.904 115.584 197.904H297.904C299.95 197.904 301.976 198.307 303.866 199.09C305.756 199.873 307.474 201.021 308.921 202.467C310.367 203.914 311.515 205.632 312.298 207.522C313.081 209.412 313.484 211.438 313.484 213.484C313.484 215.53 313.081 217.556 312.298 219.446C311.515 221.337 310.367 223.054 308.921 224.501C307.474 225.948 305.756 227.095 303.866 227.878C301.976 228.661 299.95 229.064 297.904 229.064ZM297.904 311.164H115.584C111.452 311.164 107.489 309.523 104.567 306.601C101.645 303.679 100.004 299.716 100.004 295.584C100.004 291.452 101.645 287.489 104.567 284.567C107.489 281.645 111.452 280.004 115.584 280.004H297.904C302.036 280.004 305.999 281.645 308.921 284.567C311.842 287.489 313.484 291.452 313.484 295.584C313.484 299.716 311.842 303.679 308.921 306.601C305.999 309.523 302.036 311.164 297.904 311.164ZM237.904 391.164H115.584C111.452 391.164 107.489 389.523 104.567 386.601C101.645 383.679 100.004 379.716 100.004 375.584C100.004 371.452 101.645 367.489 104.567 364.567C107.489 361.646 111.452 360.004 115.584 360.004H237.904C242.036 360.004 245.999 361.646 248.921 364.567C251.842 367.489 253.484 371.452 253.484 375.584C253.484 379.716 251.842 383.679 248.921 386.601C245.999 389.523 242.036 391.164 237.904 391.164ZM177.904 151.164H115.584C111.452 151.164 107.489 149.523 104.567 146.601C101.645 143.679 100.004 139.716 100.004 135.584C100.004 131.452 101.645 127.489 104.567 124.567C107.489 121.645 111.452 120.004 115.584 120.004H177.904C182.036 120.004 185.999 121.645 188.921 124.567C191.842 127.489 193.484 131.452 193.484 135.584C193.484 139.716 191.842 143.679 188.921 146.601C185.999 149.523 182.036 151.164 177.904 151.164Z" fill="#1A9604" stroke="black" stroke-width="0.008"/>
<path d="M445.604 317.324C458.604 328.884 464.384 343.324 464.384 362.084C464.384 377.964 460.044 390.964 452.824 401.084C449.944 405.404 441.284 412.624 425.404 425.604C419.604 431.404 415.284 435.724 412.404 441.484C409.524 447.284 406.624 454.484 406.624 463.144V468.924H372.004V463.144C372.004 451.604 373.444 441.484 377.784 432.824C382.104 424.164 393.664 411.164 413.864 393.844L419.644 388.064C425.424 380.864 428.304 373.644 428.304 364.964C428.304 354.864 425.424 346.204 419.644 338.984C413.864 333.204 403.764 328.884 393.644 328.884C379.224 328.884 369.104 333.204 361.884 341.884C356.124 349.084 353.224 360.644 353.224 375.084H320.004C320.004 351.984 327.204 333.204 340.204 320.224C353.204 307.204 372.004 300.004 395.104 300.004C416.764 300.004 432.644 305.784 445.624 317.324H445.604ZM406.624 492.004C410.964 496.364 413.844 502.124 413.844 507.904C413.844 515.104 410.964 519.464 406.644 523.784C402.304 528.124 396.524 529.564 389.304 529.564C382.104 529.564 377.764 526.664 373.424 522.344C369.084 518.004 366.204 512.244 366.204 506.464C366.204 499.244 369.084 494.904 373.404 490.584C377.764 486.244 383.524 484.804 389.304 484.804C396.504 486.244 402.304 487.684 406.624 492.004Z" fill="#1A9604" stroke="black" stroke-width="0.008"/>
</svg>
