<svg width="747" height="755" viewBox="0 0 747 755" fill="none" xmlns="http://www.w3.org/2000/svg">
<path d="M368.916 15.5934C465.548 15.5934 556.394 53.2232 624.723 121.552C693.051 189.88 730.681 280.728 730.681 377.359C730.681 473.989 693.051 564.836 624.723 633.166C556.394 701.494 465.546 739.124 368.916 739.124C265.186 739.124 166.298 694.491 97.6092 616.669C74.8133 590.842 77.2708 551.427 103.098 528.631C128.925 505.835 168.34 508.294 191.136 534.12C236.154 585.124 300.952 614.377 368.916 614.377C499.608 614.377 605.934 508.051 605.934 377.359C605.934 246.666 499.608 140.34 368.916 140.34C326.229 140.34 285.155 151.606 249.195 172.71L160.446 81.6483C221.063 38.7588 293.329 15.5934 368.916 15.5934Z" fill="#FFCC00"/>
<path d="M17.5999 239.347L59.7378 89.7629C70.5611 51.3394 118.922 39.0441 146.783 67.6313L160.444 81.6497L249.194 172.712L255.261 178.936C283.123 207.524 269.588 255.551 230.899 265.384L80.282 303.663C41.5996 313.493 6.77816 277.764 17.5999 239.347Z" fill="#1A9604"/>
<path d="M651.013 523.947C648.835 523.947 646.621 523.488 644.511 522.518C636.685 518.922 633.257 509.663 636.853 501.838C654.622 463.178 663.63 421.821 663.63 378.918C663.63 323.156 647.988 268.876 618.394 221.946C613.801 214.661 615.981 205.032 623.267 200.44C630.552 195.843 640.179 198.027 644.774 205.313C677.511 257.229 694.817 317.262 694.817 378.919C694.817 426.35 684.849 472.088 665.191 514.862C662.566 520.577 656.915 523.947 651.013 523.947Z" fill="white"/>
<path d="M580.982 167.977C577.162 167.977 573.335 166.582 570.325 163.766C548.704 143.515 524.286 126.697 497.751 113.778C490.007 110.008 486.787 100.675 490.556 92.9315C494.325 85.1894 503.659 81.9678 511.401 85.7367C540.743 100.023 567.742 118.617 591.645 141.003C597.93 146.889 598.253 156.758 592.367 163.044C589.296 166.321 585.144 167.977 580.982 167.977Z" fill="white"/>
<path d="M460.686 444.188L400.428 383.931V235.459C400.428 218.235 386.466 204.272 369.242 204.272C352.017 204.272 338.055 218.235 338.055 235.459V396.07C338.055 396.198 338.072 396.321 338.074 396.449C337.969 404.564 340.998 412.71 347.19 418.902L416.578 488.292C422.668 494.382 430.65 497.427 438.632 497.427C446.614 497.427 454.595 494.382 460.686 488.292C472.863 476.114 472.863 456.367 460.686 444.188Z" fill="#1A9604"/>
</svg>
