<svg width="300" height="316" viewBox="0 0 300 316" fill="none" xmlns="http://www.w3.org/2000/svg">
<path d="M151.222 32.8V40.8C142.155 41.0667 135.222 42.1333 130.422 44C125.889 45.6 122.822 48.8 121.222 53.6C119.622 58.1333 118.822 65.3333 118.822 75.2V273.6C118.822 283.2 119.622 290.4 121.222 295.2C122.822 300 125.889 303.2 130.422 304.8C135.222 306.133 142.155 306.8 151.222 306.8H180.422C192.955 306.8 203.089 305.467 210.822 302.8C218.822 300.133 225.089 296 229.622 290.4C234.422 284.533 238.022 276.8 240.422 267.2C242.822 257.6 244.689 245.867 246.022 232H255.222C254.422 240.267 254.022 251.2 254.022 264.8C254.022 269.867 254.155 277.2 254.422 286.8C254.955 296.133 255.755 305.867 256.822 316C243.222 315.467 227.889 315.2 210.822 315.2C193.755 314.933 178.555 314.8 165.222 314.8C159.355 314.8 151.755 314.8 142.422 314.8C133.355 314.8 123.489 314.933 112.822 315.2C102.155 315.2 91.3552 315.333 80.4219 315.6C69.4885 315.6 59.0885 315.733 49.2219 316V308C58.2885 307.467 65.0885 306.4 69.6219 304.8C74.4219 303.2 77.6219 300 79.2219 295.2C80.8219 290.4 81.6219 283.2 81.6219 273.6V75.2C81.6219 65.3333 80.8219 58.1333 79.2219 53.6C77.6219 48.8 74.4219 45.6 69.6219 44C65.0885 42.1333 58.2885 41.0667 49.2219 40.8V32.8C54.8219 33.0667 62.1552 33.3333 71.2219 33.6C80.2885 33.8667 90.0219 34 100.422 34C109.755 34 118.955 33.8667 128.022 33.6C137.355 33.3333 145.089 33.0667 151.222 32.8Z" fill="#FFCC00"/>
</svg>
