<svg width="473" height="487" viewBox="0 0 473 487" fill="none" xmlns="http://www.w3.org/2000/svg">
<path d="M140.891 44.8V52.8C131.825 53.0667 124.891 54.1333 120.091 56C115.558 57.6 112.491 60.8 110.891 65.6C109.291 70.1333 108.491 77.3333 108.491 87.2V285.6C108.491 295.2 109.291 302.4 110.891 307.2C112.491 312 115.558 315.2 120.091 316.8C124.891 318.133 131.825 318.8 140.891 318.8H170.091C182.625 318.8 192.758 317.467 200.491 314.8C208.491 312.133 214.758 308 219.291 302.4C224.091 296.533 227.691 288.8 230.091 279.2C232.491 269.6 234.358 257.867 235.691 244H244.891C244.091 252.267 243.691 263.2 243.691 276.8C243.691 281.867 243.825 289.2 244.091 298.8C244.625 308.133 245.425 317.867 246.491 328C232.891 327.467 217.558 327.2 200.491 327.2C183.425 326.933 168.225 326.8 154.891 326.8C149.025 326.8 141.425 326.8 132.091 326.8C123.025 326.8 113.158 326.933 102.491 327.2C91.8248 327.2 81.0248 327.333 70.0914 327.6C59.1581 327.6 48.7581 327.733 38.8914 328V320C47.9581 319.467 54.7581 318.4 59.2914 316.8C64.0914 315.2 67.2914 312 68.8914 307.2C70.4914 302.4 71.2914 295.2 71.2914 285.6V87.2C71.2914 77.3333 70.4914 70.1333 68.8914 65.6C67.2914 60.8 64.0914 57.6 59.2914 56C54.7581 54.1333 47.9581 53.0667 38.8914 52.8V44.8C44.4914 45.0667 51.8248 45.3333 60.8914 45.6C69.9581 45.8667 79.6914 46 90.0914 46C99.4248 46 108.625 45.8667 117.691 45.6C127.025 45.3333 134.758 45.0667 140.891 44.8Z" fill="#FFCC00"/>
<path d="M225.53 183.8C231.13 184.067 238.464 184.333 247.53 184.6C256.597 184.867 265.53 185 274.33 185C286.864 185 298.864 184.867 310.33 184.6C321.797 184.333 329.93 184.2 334.73 184.2C356.33 184.2 374.197 187.267 388.33 193.4C402.73 199.533 413.397 207.933 420.33 218.6C427.53 229 431.13 240.733 431.13 253.8C431.13 261.8 429.53 270.333 426.33 279.4C423.13 288.467 417.53 297 409.53 305C401.797 313 391.13 319.667 377.53 325C363.93 330.067 346.73 332.6 325.93 332.6H287.53V324.6H321.93C340.864 324.6 355.264 321.667 365.13 315.8C375.264 309.667 382.064 301.667 385.53 291.8C389.264 281.667 391.13 270.467 391.13 258.2C391.13 237.133 386.064 220.867 375.93 209.4C366.064 197.667 348.997 191.8 324.73 191.8C312.464 191.8 304.464 194.067 300.73 198.6C296.997 203.133 295.13 212.333 295.13 226.2V424.6C295.13 434.2 295.93 441.4 297.53 446.2C299.13 451 302.197 454.2 306.73 455.8C311.53 457.4 318.464 458.467 327.53 459V467C321.397 466.467 313.664 466.2 304.33 466.2C295.264 465.933 286.064 465.8 276.73 465.8C266.33 465.8 256.597 465.933 247.53 466.2C238.464 466.2 231.13 466.467 225.53 467V459C234.597 458.467 241.397 457.4 245.93 455.8C250.73 454.2 253.93 451 255.53 446.2C257.13 441.4 257.93 434.2 257.93 424.6V226.2C257.93 216.333 257.13 209.133 255.53 204.6C253.93 199.8 250.73 196.6 245.93 195C241.397 193.133 234.597 192.067 225.53 191.8V183.8ZM289.13 325.8C303.53 326.333 314.864 327 323.13 327.8C331.397 328.333 338.064 328.867 343.13 329.4C348.464 329.933 353.53 330.6 358.33 331.4C376.197 334.333 388.997 339.8 396.73 347.8C404.73 355.533 410.597 367.667 414.33 384.2L424.33 425C426.997 436.733 429.664 445.267 432.33 450.6C435.264 455.667 439.664 458.067 445.53 457.8C450.064 457.533 453.797 456.067 456.73 453.4C459.93 450.733 463.264 447.133 466.73 442.6L472.73 447C467.13 455.267 461.264 461.667 455.13 466.2C449.264 470.467 440.864 472.6 429.93 472.6C420.064 472.6 411.397 469.667 403.93 463.8C396.464 457.933 390.864 446.467 387.13 429.4L378.33 389.4C375.93 377.933 373.13 368.067 369.93 359.8C366.997 351.267 362.73 344.6 357.13 339.8C351.797 335 343.797 332.6 333.13 332.6H289.93L289.13 325.8Z" fill="#1A9604"/>
</svg>
