<svg width="816" height="816" viewBox="0 0 816 816" fill="none" xmlns="http://www.w3.org/2000/svg">
<path d="M581.444 622.288L638.305 565.422L625.235 552.349C609.558 536.671 584.05 536.671 568.373 552.349C560.779 559.944 556.597 570.043 556.597 580.783C556.597 591.524 560.779 601.622 568.373 609.217L581.444 622.288Z" fill="#1A9604"/>
<path d="M591.194 629.376L588.72 631.849L653.067 757.218L658.72 739.594L591.194 629.376Z" fill="#FFCC00"/>
<path d="M667.58 588.768C670.384 590.486 671.264 594.149 669.546 596.954C667.829 599.757 664.164 600.638 661.361 598.92L636.735 583.83L622.502 598.064L673.887 649.451C676.211 651.775 676.212 655.545 673.887 657.871C671.562 660.195 667.793 660.195 665.469 657.871L614.084 606.483L599.851 620.718L667.855 731.716L694.409 723.197L703.245 695.648L682.305 674.708C681.142 673.546 680.561 672.022 680.561 670.499C680.561 668.975 681.142 667.452 682.305 666.29C684.629 663.965 688.398 663.965 690.723 666.29L711.663 687.23L739.209 678.394L747.725 651.84L681.569 611.303C679.736 610.18 678.726 608.224 678.726 606.221C678.726 605.161 679.008 604.088 679.604 603.117C681.321 600.313 684.986 599.433 687.789 601.151L755.602 642.704L773.222 637.051L647.865 572.699L645.392 575.172L667.58 588.768Z" fill="#FFCC00"/>
<path d="M654.828 778.67C657.228 778.473 659.273 776.848 660.009 774.555L669.955 743.546L700.961 733.599C702.79 733.012 704.224 731.578 704.811 729.749L714.756 698.74L745.76 688.795C747.59 688.209 749.024 686.774 749.61 684.945L759.554 653.939L790.557 643.994C792.85 643.258 794.475 641.212 794.672 638.812C794.871 636.41 793.6 634.129 791.457 633.029L650.273 560.552L633.652 543.93C613.334 523.61 580.273 523.61 559.956 543.93C550.113 553.774 544.692 566.862 544.692 580.782C544.692 594.704 550.113 607.791 559.956 617.635L576.575 634.256L649.045 775.454C650.145 777.598 652.427 778.867 654.828 778.67ZM588.72 631.849L591.193 629.376L658.72 739.595L653.067 757.219L588.72 631.849ZM568.373 552.349C584.05 536.671 609.558 536.671 625.235 552.349L638.305 565.421L581.444 622.289L568.373 609.217C560.779 601.622 556.597 591.524 556.597 580.783C556.597 570.043 560.779 559.944 568.373 552.349ZM773.222 637.051L755.602 642.703L687.789 601.15C684.986 599.432 681.321 600.313 679.604 603.116C679.009 604.087 678.726 605.16 678.726 606.221C678.726 608.223 679.736 610.179 681.569 611.302L747.725 651.839L739.209 678.394L711.663 687.23L690.723 666.289C688.398 663.965 684.629 663.965 682.305 666.29C681.142 667.452 680.561 668.975 680.561 670.499C680.561 672.022 681.143 673.546 682.305 674.708L703.245 695.648L694.409 723.197L667.855 731.716L599.851 620.717L614.084 606.483L665.47 657.871C667.794 660.195 671.563 660.195 673.887 657.871C676.212 655.545 676.212 651.776 673.887 649.451L622.502 598.064L636.736 583.83L661.362 598.92C664.165 600.638 667.83 599.757 669.547 596.954C671.265 594.149 670.384 590.486 667.581 588.768L645.392 575.172L647.865 572.699L773.222 637.051Z" fill="black"/>
<path d="M780.53 263.514C776.864 263.514 773.196 262.116 770.399 259.317L556.066 44.9843C550.47 39.3883 550.47 30.3149 556.066 24.7207C561.662 19.1247 570.736 19.1247 576.33 24.7207L790.664 239.053C796.26 244.649 796.26 253.723 790.664 259.319C787.865 262.114 784.199 263.514 780.53 263.514Z" fill="#1A9604" stroke="black" stroke-width="15.385"/>
<path d="M736.188 342.893C732.521 342.893 728.853 341.495 726.056 338.696L476.687 89.3252C471.091 83.7291 471.091 74.6557 476.687 69.0616C482.283 63.4655 491.357 63.4655 496.951 69.0616L746.322 318.432C751.918 324.028 751.918 333.102 746.322 338.696C743.523 341.493 739.856 342.893 736.188 342.893Z" fill="#1A9604" stroke="black" stroke-width="15.385"/>
<path d="M680.875 411.296C677.208 411.296 673.54 409.897 670.743 407.098L408.285 144.644C402.689 139.048 402.689 129.975 408.285 124.38C413.881 118.784 422.954 118.784 428.548 124.38L691.007 386.836C696.603 392.433 696.603 401.506 691.007 407.102C688.209 409.897 684.541 411.296 680.875 411.296Z" fill="#1A9604" stroke="black" stroke-width="15.385"/>
<path d="M612.47 466.611C608.804 466.611 605.136 465.212 602.339 462.413L352.97 213.045C347.374 207.449 347.374 198.375 352.97 192.781C358.566 187.185 367.639 187.185 373.233 192.781L622.602 442.152C628.198 447.748 628.198 456.821 622.602 462.415C619.805 465.21 616.137 466.611 612.47 466.611Z" fill="#1A9604" stroke="black" stroke-width="15.385"/>
<path d="M533.095 510.951C529.429 510.951 525.761 509.553 522.964 506.754L308.629 292.421C303.033 286.825 303.033 277.752 308.629 272.158C314.225 266.562 323.299 266.562 328.893 272.158L543.227 486.488C548.823 492.085 548.823 501.158 543.227 506.754C540.428 509.551 536.762 510.951 533.095 510.951Z" fill="#1A9604" stroke="black" stroke-width="15.385"/>
<path d="M319.334 386.661C315.668 386.661 311.999 385.262 309.202 382.463C303.606 376.867 303.606 367.794 309.202 362.2L646.104 25.2978C651.7 19.7017 660.773 19.7017 666.37 25.2978C671.966 30.8939 671.966 39.9672 666.37 45.5633L329.466 382.463C326.669 385.262 323.002 386.661 319.334 386.661Z" fill="#1A9604" stroke="black" stroke-width="15.385"/>
<path d="M364.926 464.79C361.258 464.79 357.592 463.391 354.794 460.592C349.198 454.996 349.198 445.923 354.794 440.329L724.235 70.888C729.831 65.2919 738.905 65.2919 744.499 70.888C750.095 76.4841 750.095 85.5574 744.499 91.1535L375.058 460.592C372.261 463.39 368.593 464.79 364.926 464.79Z" fill="#1A9604" stroke="black" stroke-width="15.385"/>
<path d="M443.054 510.38C439.387 510.38 435.719 508.982 432.922 506.183C427.326 500.587 427.326 491.513 432.922 485.919L769.824 149.017C775.42 143.421 784.493 143.421 790.087 149.017C795.683 154.613 795.683 163.687 790.087 169.281L453.185 506.183C450.386 508.98 446.72 510.38 443.054 510.38Z" fill="#1A9604" stroke="black" stroke-width="15.385"/>
<path d="M754.921 60.4657C712.017 17.5637 649.889 -0.0633042 579.981 10.8365C513.605 21.1842 447.526 56.4038 393.919 110.011C340.312 163.618 305.091 229.695 294.745 296.073C292.093 313.084 291.144 329.63 291.822 345.555C288.559 390.423 306.359 445.774 260.536 492.818L211.419 541.935L273.446 603.964L322.5 554.912C369.559 509.005 424.937 526.826 469.827 523.561C485.753 524.239 502.299 523.292 519.312 520.638C585.69 510.29 651.769 475.069 705.372 421.466C758.979 367.859 794.201 301.779 804.546 235.404C815.444 165.492 797.821 103.368 754.921 60.4657ZM744.243 226.004C735.871 279.691 706.744 333.782 662.216 378.31C617.69 422.836 563.6 451.964 509.91 460.334C459.756 468.153 416.298 456.62 387.532 427.857C358.767 399.091 347.232 355.629 355.05 305.473C363.421 251.781 392.553 197.695 437.077 153.171C481.605 108.641 535.694 79.5123 589.381 71.142C639.536 63.322 682.999 74.8581 711.765 103.622C740.529 132.389 752.059 175.847 744.243 226.004Z" fill="#FFCC00" stroke="black" stroke-width="15.385"/>
<path d="M99.1247 801.76C91.211 809.672 78.2669 809.672 70.3514 801.759L13.6282 745.033C5.71459 737.122 5.71459 724.174 13.6244 716.258L194.887 534.996C202.8 527.084 215.746 527.084 223.662 535L280.387 591.723C288.301 599.638 288.299 612.583 280.387 620.494L99.1247 801.76Z" fill="#1A9604" stroke="black" stroke-width="15.385"/>
<path d="M261.981 638.896L176.482 553.397L156.217 573.662L241.716 659.161L261.981 638.896Z" fill="black" stroke="black" stroke-width="15.385"/>
<path d="M224.154 676.723L138.655 591.225L118.39 611.489L203.889 696.988L224.154 676.723Z" fill="black" stroke="black" stroke-width="15.385"/>
<path d="M186.329 714.551L100.83 629.052L80.5656 649.316L166.064 734.815L186.329 714.551Z" fill="black" stroke="black" stroke-width="15.385"/>
</svg>
