<svg width="1622" height="816" viewBox="0 0 1622 816" fill="none" xmlns="http://www.w3.org/2000/svg">
<path d="M581.444 622.288L638.305 565.422L625.234 552.349C609.558 536.671 584.05 536.671 568.373 552.349C560.779 559.944 556.596 570.043 556.596 580.783C556.596 591.524 560.779 601.622 568.373 609.217L581.444 622.288Z" fill="#1A9604"/>
<path d="M591.193 629.376L588.72 631.849L653.067 757.218L658.719 739.594L591.193 629.376Z" fill="#FFCC00"/>
<path d="M667.58 588.768C670.384 590.486 671.264 594.149 669.546 596.954C667.829 599.757 664.164 600.638 661.361 598.92L636.735 583.83L622.502 598.064L673.887 649.451C676.211 651.775 676.212 655.545 673.887 657.871C671.562 660.195 667.793 660.195 665.469 657.871L614.084 606.483L599.851 620.718L667.855 731.716L694.409 723.197L703.245 695.648L682.305 674.708C681.142 673.546 680.561 672.022 680.561 670.499C680.561 668.975 681.142 667.452 682.305 666.29C684.629 663.965 688.398 663.965 690.722 666.29L711.663 687.23L739.209 678.394L747.725 651.84L681.569 611.303C679.736 610.18 678.725 608.224 678.725 606.221C678.725 605.161 679.008 604.088 679.603 603.117C681.321 600.313 684.986 599.433 687.789 601.151L755.601 642.704L773.222 637.051L647.865 572.699L645.392 575.172L667.58 588.768Z" fill="#FFCC00"/>
<path d="M654.828 778.67C657.228 778.473 659.273 776.848 660.009 774.555L669.955 743.546L700.96 733.599C702.79 733.012 704.224 731.578 704.81 729.749L714.756 698.74L745.76 688.795C747.59 688.209 749.023 686.774 749.61 684.945L759.554 653.939L790.557 643.994C792.85 643.258 794.475 641.212 794.672 638.812C794.871 636.41 793.6 634.129 791.457 633.029L650.272 560.552L633.652 543.93C613.334 523.61 580.273 523.61 559.955 543.93C550.113 553.774 544.692 566.862 544.692 580.782C544.692 594.704 550.113 607.791 559.955 617.635L576.575 634.256L649.045 775.454C650.145 777.598 652.427 778.867 654.828 778.67ZM588.72 631.849L591.193 629.376L658.719 739.595L653.067 757.219L588.72 631.849ZM568.373 552.349C584.049 536.671 609.558 536.671 625.234 552.349L638.305 565.421L581.444 622.289L568.373 609.217C560.779 601.622 556.597 591.524 556.597 580.783C556.597 570.043 560.779 559.944 568.373 552.349ZM773.222 637.051L755.601 642.703L687.788 601.15C684.986 599.432 681.321 600.313 679.603 603.116C679.009 604.087 678.725 605.16 678.725 606.221C678.725 608.223 679.736 610.179 681.569 611.302L747.725 651.839L739.209 678.394L711.663 687.23L690.722 666.289C688.398 663.965 684.629 663.965 682.305 666.29C681.142 667.452 680.561 668.975 680.561 670.499C680.561 672.022 681.143 673.546 682.305 674.708L703.245 695.648L694.409 723.197L667.855 731.716L599.851 620.717L614.084 606.483L665.469 657.871C667.794 660.195 671.563 660.195 673.887 657.871C676.212 655.545 676.212 651.776 673.887 649.451L622.502 598.064L636.736 583.83L661.362 598.92C664.165 600.638 667.83 599.757 669.547 596.954C671.265 594.149 670.384 590.486 667.581 588.768L645.392 575.172L647.865 572.699L773.222 637.051Z" fill="black"/>
<path d="M780.53 263.514C776.864 263.514 773.196 262.116 770.399 259.317L556.066 44.9843C550.47 39.3883 550.47 30.3149 556.066 24.7207C561.662 19.1247 570.736 19.1247 576.33 24.7207L790.664 239.053C796.26 244.649 796.26 253.723 790.664 259.319C787.865 262.114 784.199 263.514 780.53 263.514Z" fill="#1A9604" stroke="black" stroke-width="15.385"/>
<path d="M736.188 342.893C732.521 342.893 728.853 341.495 726.056 338.696L476.687 89.3252C471.091 83.7291 471.091 74.6557 476.687 69.0616C482.283 63.4655 491.357 63.4655 496.951 69.0616L746.322 318.432C751.918 324.028 751.918 333.102 746.322 338.696C743.523 341.493 739.856 342.893 736.188 342.893Z" fill="#1A9604" stroke="black" stroke-width="15.385"/>
<path d="M680.875 411.296C677.208 411.296 673.54 409.897 670.743 407.098L408.285 144.644C402.689 139.048 402.689 129.975 408.285 124.38C413.881 118.784 422.954 118.784 428.548 124.38L691.007 386.836C696.603 392.433 696.603 401.506 691.007 407.102C688.209 409.897 684.541 411.296 680.875 411.296Z" fill="#1A9604" stroke="black" stroke-width="15.385"/>
<path d="M612.47 466.611C608.804 466.611 605.136 465.212 602.338 462.413L352.97 213.045C347.374 207.449 347.374 198.375 352.97 192.781C358.566 187.185 367.639 187.185 373.233 192.781L622.602 442.152C628.198 447.748 628.198 456.821 622.602 462.415C619.805 465.21 616.137 466.611 612.47 466.611Z" fill="#1A9604" stroke="black" stroke-width="15.385"/>
<path d="M533.095 510.951C529.429 510.951 525.761 509.553 522.964 506.754L308.629 292.421C303.033 286.825 303.033 277.752 308.629 272.158C314.225 266.562 323.299 266.562 328.893 272.158L543.227 486.488C548.823 492.085 548.823 501.158 543.227 506.754C540.428 509.551 536.762 510.951 533.095 510.951Z" fill="#1A9604" stroke="black" stroke-width="15.385"/>
<path d="M319.334 386.661C315.668 386.661 311.999 385.262 309.202 382.463C303.606 376.867 303.606 367.794 309.202 362.2L646.104 25.2978C651.7 19.7017 660.773 19.7017 666.37 25.2978C671.966 30.8939 671.966 39.9672 666.37 45.5633L329.466 382.463C326.669 385.262 323.002 386.661 319.334 386.661Z" fill="#1A9604" stroke="black" stroke-width="15.385"/>
<path d="M364.926 464.79C361.258 464.79 357.592 463.391 354.794 460.592C349.198 454.996 349.198 445.923 354.794 440.329L724.235 70.888C729.831 65.2919 738.905 65.2919 744.499 70.888C750.095 76.4841 750.095 85.5574 744.499 91.1535L375.058 460.592C372.261 463.39 368.593 464.79 364.926 464.79Z" fill="#1A9604" stroke="black" stroke-width="15.385"/>
<path d="M443.054 510.38C439.387 510.38 435.719 508.982 432.922 506.183C427.326 500.587 427.326 491.513 432.922 485.919L769.824 149.017C775.42 143.421 784.493 143.421 790.087 149.017C795.683 154.613 795.683 163.687 790.087 169.281L453.185 506.183C450.386 508.98 446.72 510.38 443.054 510.38Z" fill="#1A9604" stroke="black" stroke-width="15.385"/>
<path d="M754.921 60.4657C712.017 17.5637 649.889 -0.0633042 579.981 10.8365C513.605 21.1842 447.526 56.4038 393.919 110.011C340.312 163.618 305.091 229.695 294.745 296.073C292.093 313.084 291.144 329.63 291.822 345.555C288.559 390.423 306.359 445.774 260.536 492.818L211.419 541.935L273.446 603.964L322.5 554.912C369.559 509.005 424.937 526.826 469.827 523.561C485.753 524.239 502.299 523.292 519.312 520.638C585.69 510.29 651.769 475.069 705.372 421.466C758.979 367.859 794.201 301.779 804.546 235.404C815.444 165.492 797.821 103.368 754.921 60.4657ZM744.243 226.004C735.871 279.691 706.744 333.782 662.216 378.31C617.69 422.836 563.6 451.964 509.91 460.334C459.756 468.153 416.298 456.62 387.532 427.857C358.767 399.091 347.232 355.629 355.05 305.473C363.421 251.781 392.553 197.695 437.077 153.171C481.605 108.641 535.694 79.5123 589.381 71.142C639.536 63.322 682.999 74.8581 711.765 103.622C740.529 132.389 752.059 175.847 744.243 226.004Z" fill="#FFCC00" stroke="black" stroke-width="15.385"/>
<path d="M99.1247 801.76C91.211 809.672 78.2669 809.672 70.3514 801.759L13.6282 745.033C5.71459 737.122 5.71459 724.174 13.6244 716.258L194.887 534.996C202.8 527.084 215.746 527.084 223.662 535L280.387 591.723C288.301 599.638 288.299 612.583 280.387 620.494L99.1247 801.76Z" fill="#1A9604" stroke="black" stroke-width="15.385"/>
<path d="M261.981 638.896L176.482 553.397L156.217 573.662L241.716 659.161L261.981 638.896Z" fill="black" stroke="black" stroke-width="15.385"/>
<path d="M224.154 676.723L138.655 591.225L118.39 611.489L203.889 696.988L224.154 676.723Z" fill="black" stroke="black" stroke-width="15.385"/>
<path d="M186.329 714.551L100.83 629.052L80.5656 649.316L166.064 734.815L186.329 714.551Z" fill="black" stroke="black" stroke-width="15.385"/>
<path d="M499.311 245.69C499.311 262.69 493.311 277.39 481.311 289.79C469.311 301.99 451.811 310.79 428.811 316.19C441.211 319.59 450.611 325.19 457.011 332.99C463.411 340.59 466.611 349.39 466.611 359.39C466.611 375.19 461.611 388.89 451.611 400.49C441.811 412.09 427.411 421.09 408.411 427.49C389.411 433.69 366.511 436.79 339.711 436.79C329.711 436.79 321.711 436.49 315.711 435.89C315.511 441.49 313.111 445.69 308.511 448.49C303.911 451.29 298.011 452.69 290.811 452.69C283.611 452.69 278.611 451.09 275.811 447.89C273.211 444.69 272.111 439.99 272.511 433.79C274.311 405.79 277.811 376.49 283.011 345.89C288.211 315.09 294.811 285.39 302.811 256.79C304.211 251.79 307.011 248.29 311.211 246.29C315.411 244.29 320.911 243.29 327.711 243.29C339.911 243.29 346.011 246.69 346.011 253.49C346.011 256.29 345.411 259.49 344.211 263.09C339.011 278.69 333.811 299.89 328.611 326.69C323.411 353.29 319.711 378.69 317.511 402.89C327.111 403.69 334.911 404.09 340.911 404.09C368.911 404.09 389.411 400.09 402.411 392.09C415.611 383.89 422.211 373.49 422.211 360.89C422.211 352.09 418.411 344.69 410.811 338.69C403.411 332.69 390.911 329.39 373.311 328.79C369.311 328.59 366.511 327.59 364.911 325.79C363.311 323.99 362.511 321.09 362.511 317.09C362.511 311.29 363.711 306.59 366.111 302.99C368.511 299.39 372.911 297.49 379.311 297.29C393.511 296.89 406.311 294.79 417.711 290.99C429.311 287.19 438.411 281.89 445.011 275.09C451.611 268.09 454.911 259.99 454.911 250.79C454.911 239.19 449.211 230.09 437.811 223.49C426.411 216.69 408.911 213.29 385.311 213.29C363.911 213.29 343.211 216.09 323.211 221.69C303.211 227.09 286.211 233.99 272.211 242.39C265.811 246.19 260.411 248.09 256.011 248.09C252.411 248.09 249.611 246.89 247.611 244.49C245.811 241.89 244.911 238.69 244.911 234.89C244.911 229.89 245.911 225.59 247.911 221.99C250.111 218.39 255.211 214.29 263.211 209.69C280.011 200.09 299.711 192.59 322.311 187.19C344.911 181.79 368.011 179.09 391.611 179.09C427.811 179.09 454.811 185.19 472.611 197.39C490.411 209.59 499.311 225.69 499.311 245.69ZM526.344 439.19C513.944 439.19 504.044 434.69 496.644 425.69C489.244 416.69 485.544 404.89 485.544 390.29C485.544 374.29 489.244 359.19 496.644 344.99C504.044 330.59 513.844 319.09 526.044 310.49C538.444 301.69 551.544 297.29 565.344 297.29C569.744 297.29 572.644 298.19 574.044 299.99C575.644 301.59 576.944 304.59 577.944 308.99C582.144 308.19 586.544 307.79 591.144 307.79C600.944 307.79 605.844 311.29 605.844 318.29C605.844 322.49 604.344 332.49 601.344 348.29C596.744 371.29 594.444 387.29 594.444 396.29C594.444 399.29 595.144 401.69 596.544 403.49C598.144 405.29 600.144 406.19 602.544 406.19C606.344 406.19 610.944 403.79 616.344 398.99C621.744 393.99 629.044 385.99 638.244 374.99C640.644 372.19 643.344 370.79 646.344 370.79C648.944 370.79 650.944 371.99 652.344 374.39C653.944 376.79 654.744 380.09 654.744 384.29C654.744 392.29 652.844 398.49 649.044 402.89C640.844 413.09 632.144 421.69 622.944 428.69C613.744 435.69 604.844 439.19 596.244 439.19C589.644 439.19 583.544 436.99 577.944 432.59C572.544 427.99 568.444 421.79 565.644 413.99C555.244 430.79 542.144 439.19 526.344 439.19ZM537.144 408.89C541.544 408.89 545.744 406.29 549.744 401.09C553.744 395.89 556.644 388.99 558.444 380.39L569.544 325.19C561.144 325.39 553.344 328.59 546.144 334.79C539.144 340.79 533.544 348.79 529.344 358.79C525.144 368.79 523.044 379.39 523.044 390.59C523.044 396.79 524.244 401.39 526.644 404.39C529.244 407.39 532.744 408.89 537.144 408.89ZM800.762 370.79C803.362 370.79 805.362 371.99 806.762 374.39C808.362 376.79 809.162 380.09 809.162 384.29C809.162 392.29 807.262 398.49 803.462 402.89C795.262 412.89 786.262 421.49 776.462 428.69C766.662 435.69 756.962 439.19 747.362 439.19C732.162 439.19 720.562 430.29 712.562 412.49C704.162 423.09 696.762 430.19 690.362 433.79C684.162 437.39 676.862 439.19 668.462 439.19C656.262 439.19 646.162 434.69 638.162 425.69C630.362 416.49 626.462 404.59 626.462 389.99C626.462 373.99 629.862 359.19 636.662 345.59C643.462 331.79 652.762 320.59 664.562 311.99C676.562 303.19 689.962 297.99 704.762 296.39C708.562 257.59 715.762 224.49 726.362 197.09C737.162 169.49 751.262 155.69 768.662 155.69C777.262 155.69 784.362 159.59 789.962 167.39C795.762 175.19 798.662 186.99 798.662 202.79C798.662 225.19 793.162 251.39 782.162 281.39C771.162 311.39 756.462 342.19 738.062 373.79C738.862 385.39 740.562 393.69 743.162 398.69C745.962 403.69 749.462 406.19 753.662 406.19C759.062 406.19 764.562 403.79 770.162 398.99C775.762 394.19 783.262 386.19 792.662 374.99C795.062 372.19 797.762 370.79 800.762 370.79ZM765.362 185.09C761.562 185.09 757.762 191.89 753.962 205.49C750.162 218.89 746.862 236.49 744.062 258.29C741.462 280.09 739.562 302.89 738.362 326.69C760.762 277.89 771.962 238.69 771.962 209.09C771.962 201.49 771.262 195.59 769.862 191.39C768.662 187.19 767.162 185.09 765.362 185.09ZM678.962 408.89C682.762 408.89 686.562 407.39 690.362 404.39C694.162 401.19 698.962 395.39 704.762 386.99C702.762 376.19 701.762 364.09 701.762 350.69C701.762 345.89 701.962 338.09 702.362 327.29C691.362 330.69 682.162 338.09 674.762 349.49C667.562 360.69 663.962 373.19 663.962 386.99C663.962 401.59 668.962 408.89 678.962 408.89ZM806.057 439.19C798.457 439.19 793.057 435.19 789.857 427.19C786.857 419.19 785.357 406.39 785.357 388.79C785.357 362.79 789.057 338.09 796.457 314.69C798.257 308.89 801.157 304.69 805.157 302.09C809.357 299.29 815.157 297.89 822.557 297.89C826.557 297.89 829.357 298.39 830.957 299.39C832.557 300.39 833.357 302.29 833.357 305.09C833.357 308.29 831.857 315.49 828.857 326.69C826.857 334.69 825.257 341.69 824.057 347.69C822.857 353.49 821.857 360.79 821.057 369.59C826.457 353.99 832.857 340.79 840.257 329.99C847.857 319.19 855.557 311.19 863.357 305.99C871.357 300.59 878.857 297.89 885.857 297.89C892.857 297.89 897.757 299.49 900.557 302.69C903.557 305.89 905.057 310.79 905.057 317.39C905.057 323.79 903.157 335.39 899.357 352.19C897.757 359.39 896.657 364.79 896.057 368.39C906.057 343.79 917.157 325.89 929.357 314.69C941.557 303.49 952.957 297.89 963.557 297.89C976.557 297.89 983.057 304.39 983.057 317.39C983.057 325.19 980.857 339.29 976.457 359.69C972.657 377.09 970.757 388.59 970.757 394.19C970.757 402.19 973.657 406.19 979.457 406.19C983.457 406.19 988.157 403.79 993.557 398.99C999.157 393.99 1006.56 385.99 1015.76 374.99C1018.16 372.19 1020.86 370.79 1023.86 370.79C1026.46 370.79 1028.46 371.99 1029.86 374.39C1031.46 376.79 1032.26 380.09 1032.26 384.29C1032.26 392.29 1030.36 398.49 1026.56 402.89C1017.96 413.49 1008.66 422.19 998.657 428.99C988.857 435.79 977.657 439.19 965.057 439.19C954.857 439.19 947.157 436.29 941.957 430.49C936.757 424.49 934.157 415.89 934.157 404.69C934.157 399.09 935.557 389.09 938.357 374.69C940.957 362.09 942.257 353.39 942.257 348.59C942.257 345.39 941.157 343.79 938.957 343.79C936.357 343.79 932.657 347.19 927.857 353.99C923.057 360.59 918.257 369.39 913.457 380.39C908.657 391.39 904.757 402.99 901.757 415.19C899.557 424.79 896.957 431.19 893.957 434.39C891.157 437.59 886.557 439.19 880.157 439.19C873.557 439.19 868.557 436.09 865.157 429.89C861.957 423.49 860.357 415.79 860.357 406.79C860.357 399.19 861.357 388.19 863.357 373.79C864.957 360.99 865.757 352.59 865.757 348.59C865.757 345.39 864.657 343.79 862.457 343.79C859.457 343.79 855.657 347.39 851.057 354.59C846.457 361.79 841.957 370.99 837.557 382.19C833.357 393.39 829.957 404.39 827.357 415.19C825.157 424.59 822.557 430.99 819.557 434.39C816.757 437.59 812.257 439.19 806.057 439.19ZM1047.3 278.09C1038.9 278.09 1032.6 276.19 1028.4 272.39C1024.2 268.39 1022.1 262.89 1022.1 255.89C1022.1 248.89 1024.8 243.09 1030.2 238.49C1035.8 233.69 1042.7 231.29 1050.9 231.29C1058.3 231.29 1064.3 233.09 1068.9 236.69C1073.5 240.29 1075.8 245.39 1075.8 251.99C1075.8 259.99 1073.2 266.39 1068 271.19C1062.8 275.79 1055.9 278.09 1047.3 278.09ZM1044.9 439.19C1031.9 439.19 1022.4 434.59 1016.4 425.39C1010.6 416.19 1007.7 403.99 1007.7 388.79C1007.7 379.79 1008.8 368.29 1011 354.29C1013.4 340.09 1016.4 326.89 1020 314.69C1021.8 308.29 1024.2 303.89 1027.2 301.49C1030.2 299.09 1035 297.89 1041.6 297.89C1051.8 297.89 1056.9 301.29 1056.9 308.09C1056.9 313.09 1055 324.69 1051.2 342.89C1046.4 364.89 1044 379.79 1044 387.59C1044 393.59 1044.8 398.19 1046.4 401.39C1048 404.59 1050.7 406.19 1054.5 406.19C1058.1 406.19 1062.6 403.69 1068 398.69C1073.4 393.69 1080.6 385.79 1089.6 374.99C1092 372.19 1094.7 370.79 1097.7 370.79C1100.3 370.79 1102.3 371.99 1103.7 374.39C1105.3 376.79 1106.1 380.09 1106.1 384.29C1106.1 392.29 1104.2 398.49 1100.4 402.89C1080.6 427.09 1062.1 439.19 1044.9 439.19ZM1103.13 439.19C1095.53 439.19 1090.13 435.19 1086.93 427.19C1083.93 419.19 1082.43 406.39 1082.43 388.79C1082.43 362.79 1086.13 338.09 1093.53 314.69C1095.33 308.89 1098.23 304.69 1102.23 302.09C1106.43 299.29 1112.23 297.89 1119.63 297.89C1123.63 297.89 1126.43 298.39 1128.03 299.39C1129.63 300.39 1130.43 302.29 1130.43 305.09C1130.43 308.29 1128.93 315.49 1125.93 326.69C1123.93 334.69 1122.33 341.69 1121.13 347.69C1119.93 353.69 1118.93 361.09 1118.13 369.89C1124.73 352.69 1132.13 338.69 1140.33 327.89C1148.53 317.09 1156.53 309.39 1164.33 304.79C1172.33 300.19 1179.63 297.89 1186.23 297.89C1199.23 297.89 1205.73 304.39 1205.73 317.39C1205.73 325.19 1203.53 339.29 1199.13 359.69C1195.33 377.09 1193.43 388.59 1193.43 394.19C1193.43 402.19 1196.33 406.19 1202.13 406.19C1206.13 406.19 1210.83 403.79 1216.23 398.99C1221.83 393.99 1229.23 385.99 1238.43 374.99C1240.83 372.19 1243.53 370.79 1246.53 370.79C1249.13 370.79 1251.13 371.99 1252.53 374.39C1254.13 376.79 1254.93 380.09 1254.93 384.29C1254.93 392.29 1253.03 398.49 1249.23 402.89C1240.63 413.49 1231.33 422.19 1221.33 428.99C1211.53 435.79 1200.33 439.19 1187.73 439.19C1177.53 439.19 1169.83 436.29 1164.63 430.49C1159.43 424.49 1156.83 415.89 1156.83 404.69C1156.83 399.09 1158.23 389.09 1161.03 374.69C1163.63 362.09 1164.93 353.39 1164.93 348.59C1164.93 345.39 1163.83 343.79 1161.63 343.79C1159.03 343.79 1155.33 347.19 1150.53 353.99C1145.93 360.59 1141.13 369.39 1136.13 380.39C1131.33 391.39 1127.43 402.99 1124.43 415.19C1122.23 424.59 1119.63 430.99 1116.63 434.39C1113.83 437.59 1109.33 439.19 1103.13 439.19ZM1364.46 370.79C1367.06 370.79 1369.06 371.99 1370.46 374.39C1372.06 376.79 1372.86 380.09 1372.86 384.29C1372.86 392.29 1370.96 398.49 1367.16 402.89C1358.56 413.49 1349.16 422.19 1338.96 428.99C1328.76 435.79 1317.06 439.19 1303.86 439.19C1263.06 439.19 1242.66 410.49 1242.66 353.09C1242.66 344.29 1242.96 335.39 1243.56 326.39H1231.86C1225.86 326.39 1221.76 325.29 1219.56 323.09C1217.56 320.89 1216.56 317.39 1216.56 312.59C1216.56 301.39 1221.06 295.79 1230.06 295.79H1247.16C1250.56 273.79 1255.76 253.69 1262.76 235.49C1269.76 217.29 1278.16 202.79 1287.96 191.99C1297.96 181.19 1308.66 175.79 1320.06 175.79C1328.46 175.79 1335.06 179.49 1339.86 186.89C1344.66 194.29 1347.06 203.59 1347.06 214.79C1347.06 245.79 1334.06 272.79 1308.06 295.79H1341.66C1344.86 295.79 1347.16 296.49 1348.56 297.89C1349.96 299.29 1350.66 301.89 1350.66 305.69C1350.66 319.49 1339.36 326.39 1316.76 326.39H1280.16C1279.76 336.39 1279.56 344.19 1279.56 349.79C1279.56 370.59 1281.96 385.19 1286.76 393.59C1291.76 401.99 1299.56 406.19 1310.16 406.19C1318.76 406.19 1326.36 403.59 1332.96 398.39C1339.56 393.19 1347.36 385.39 1356.36 374.99C1358.76 372.19 1361.46 370.79 1364.46 370.79ZM1311.96 204.59C1308.96 204.59 1305.56 208.39 1301.76 215.99C1298.16 223.39 1294.66 233.79 1291.26 247.19C1288.06 260.39 1285.36 275.09 1283.16 291.29C1294.96 281.09 1303.76 269.69 1309.56 257.09C1315.56 244.29 1318.56 232.69 1318.56 222.29C1318.56 210.49 1316.36 204.59 1311.96 204.59ZM1501.43 345.59C1504.03 345.59 1506.03 346.89 1507.43 349.49C1508.83 352.09 1509.53 355.39 1509.53 359.39C1509.53 368.99 1506.63 374.69 1500.83 376.49C1488.83 380.69 1475.63 383.09 1461.23 383.69C1457.43 400.49 1449.93 413.99 1438.73 424.19C1427.53 434.19 1414.83 439.19 1400.63 439.19C1388.63 439.19 1378.33 436.29 1369.73 430.49C1361.33 424.69 1354.93 416.99 1350.53 407.39C1346.13 397.79 1343.93 387.39 1343.93 376.19C1343.93 360.99 1346.83 347.49 1352.63 335.69C1358.43 323.69 1366.43 314.39 1376.63 307.79C1386.83 300.99 1398.13 297.59 1410.53 297.59C1425.73 297.59 1437.93 302.89 1447.13 313.49C1456.53 323.89 1462.03 336.79 1463.63 352.19C1473.03 351.59 1484.23 349.59 1497.23 346.19C1498.83 345.79 1500.23 345.59 1501.43 345.59ZM1403.03 407.39C1409.43 407.39 1414.93 404.79 1419.53 399.59C1424.33 394.39 1427.53 386.89 1429.13 377.09C1422.93 372.89 1418.13 367.39 1414.73 360.59C1411.53 353.79 1409.93 346.59 1409.93 338.99C1409.93 335.79 1410.23 332.59 1410.83 329.39H1409.33C1401.33 329.39 1394.63 333.29 1389.23 341.09C1384.03 348.69 1381.43 359.49 1381.43 373.49C1381.43 384.49 1383.53 392.89 1387.73 398.69C1392.13 404.49 1397.23 407.39 1403.03 407.39ZM1505.08 439.19C1497.48 439.19 1492.08 435.19 1488.88 427.19C1485.88 419.19 1484.38 406.39 1484.38 388.79C1484.38 362.79 1488.08 338.09 1495.48 314.69C1497.28 308.89 1500.18 304.69 1504.18 302.09C1508.38 299.29 1514.18 297.89 1521.58 297.89C1525.58 297.89 1528.38 298.39 1529.98 299.39C1531.58 300.39 1532.38 302.29 1532.38 305.09C1532.38 308.29 1530.88 315.49 1527.88 326.69C1525.88 334.69 1524.28 341.69 1523.08 347.69C1521.88 353.69 1520.88 361.09 1520.08 369.89C1526.68 352.69 1534.08 338.69 1542.28 327.89C1550.48 317.09 1558.48 309.39 1566.28 304.79C1574.28 300.19 1581.58 297.89 1588.18 297.89C1594.58 297.89 1599.38 299.59 1602.58 302.99C1605.98 306.19 1607.68 310.99 1607.68 317.39C1607.68 322.59 1606.58 332.39 1604.38 346.79C1602.38 358.99 1600.78 370.59 1599.58 381.59C1598.38 392.39 1597.78 404.49 1597.78 417.89C1597.78 425.49 1596.18 430.99 1592.98 434.39C1589.98 437.59 1584.98 439.19 1577.98 439.19C1571.38 439.19 1566.58 437.49 1563.58 434.09C1560.58 430.69 1559.08 425.59 1559.08 418.79C1559.08 410.79 1560.48 397.59 1563.28 379.19C1565.68 363.19 1566.88 352.99 1566.88 348.59C1566.88 345.39 1565.78 343.79 1563.58 343.79C1560.98 343.79 1557.28 347.19 1552.48 353.99C1547.88 360.59 1543.08 369.39 1538.08 380.39C1533.28 391.39 1529.38 402.99 1526.38 415.19C1524.18 424.59 1521.58 430.99 1518.58 434.39C1515.78 437.59 1511.28 439.19 1505.08 439.19Z" fill="white"/>
<path d="M999.121 728.09C972.521 728.09 951.221 723.09 935.221 713.09C919.221 702.89 911.221 687.39 911.221 666.59C911.221 655.59 913.121 647.19 916.921 641.39C920.721 635.59 926.321 632.69 933.721 632.69C939.121 632.69 943.521 634.09 946.921 636.89C950.321 639.69 952.021 643.29 952.021 647.69C952.021 651.69 951.721 655.19 951.121 658.19C951.121 658.99 950.921 660.39 950.521 662.39C950.321 664.39 950.221 666.49 950.221 668.69C950.221 677.69 954.721 684.39 963.721 688.79C972.921 693.19 985.721 695.39 1002.12 695.39C1019.12 695.39 1032.42 692.39 1042.02 686.39C1051.62 680.19 1056.42 671.59 1056.42 660.59C1056.42 653.79 1054.22 647.99 1049.82 643.19C1045.42 638.19 1039.92 634.09 1033.32 630.89C1026.72 627.49 1017.42 623.39 1005.42 618.59C990.021 612.59 977.421 606.89 967.621 601.49C958.021 596.09 949.721 588.79 942.721 579.59C935.921 570.19 932.521 558.59 932.521 544.79C932.521 530.39 936.321 517.59 943.921 506.39C951.721 495.19 962.821 486.49 977.221 480.29C991.821 474.09 1008.92 470.99 1028.52 470.99C1043.12 470.99 1056.52 473.19 1068.72 477.59C1080.92 481.79 1090.62 488.29 1097.82 497.09C1105.22 505.89 1108.92 516.69 1108.92 529.49C1108.92 542.09 1107.02 551.59 1103.22 557.99C1099.42 564.39 1093.82 567.59 1086.42 567.59C1081.22 567.59 1076.82 565.99 1073.22 562.79C1069.82 559.59 1068.12 555.79 1068.12 551.39C1068.12 547.59 1068.42 544.09 1069.02 540.89C1069.62 534.89 1069.92 531.09 1069.92 529.49C1069.92 521.09 1065.82 514.69 1057.62 510.29C1049.42 505.89 1039.22 503.69 1027.02 503.69C1009.82 503.69 996.621 506.89 987.421 513.29C978.421 519.49 973.921 528.29 973.921 539.69C973.921 547.29 976.221 553.79 980.821 559.19C985.621 564.59 991.521 569.09 998.521 572.69C1005.52 576.29 1015.32 580.59 1027.92 585.59C1043.12 591.79 1055.32 597.39 1064.52 602.39C1073.72 607.39 1081.52 614.19 1087.92 622.79C1094.52 631.39 1097.82 641.99 1097.82 654.59C1097.82 678.19 1088.82 696.39 1070.82 709.19C1053.02 721.79 1029.12 728.09 999.121 728.09ZM1180.73 727.19C1161.13 727.19 1145.83 721.69 1134.83 710.69C1124.03 699.49 1118.63 684.79 1118.63 666.59C1118.63 650.39 1121.83 636.19 1128.23 623.99C1134.63 611.79 1142.93 602.39 1153.13 595.79C1163.33 589.19 1174.03 585.89 1185.23 585.89C1196.23 585.89 1204.73 589.19 1210.73 595.79C1216.93 602.19 1220.03 610.49 1220.03 620.69C1220.03 629.09 1218.13 636.19 1214.33 641.99C1210.73 647.79 1205.93 650.69 1199.93 650.69C1196.13 650.69 1193.03 649.79 1190.63 647.99C1188.43 646.19 1187.33 643.69 1187.33 640.49C1187.33 639.09 1187.53 637.49 1187.93 635.69C1188.33 633.89 1188.63 632.59 1188.83 631.79C1189.83 628.79 1190.33 625.99 1190.33 623.39C1190.33 620.79 1189.63 618.79 1188.23 617.39C1187.03 615.99 1185.23 615.29 1182.83 615.29C1178.23 615.29 1173.93 617.39 1169.93 621.59C1165.93 625.59 1162.73 631.09 1160.33 638.09C1157.93 645.09 1156.73 652.79 1156.73 661.19C1156.73 684.39 1166.83 695.99 1187.03 695.99C1195.23 695.99 1204.03 693.29 1213.43 687.89C1223.03 682.29 1232.43 673.99 1241.63 662.99C1244.03 660.19 1246.73 658.79 1249.73 658.79C1252.33 658.79 1254.33 659.99 1255.73 662.39C1257.33 664.79 1258.13 668.09 1258.13 672.29C1258.13 679.89 1256.23 686.09 1252.43 690.89C1243.03 702.49 1231.73 711.49 1218.53 717.89C1205.53 724.09 1192.93 727.19 1180.73 727.19ZM1386.88 633.59C1389.48 633.59 1391.48 634.89 1392.88 637.49C1394.28 640.09 1394.98 643.39 1394.98 647.39C1394.98 656.99 1392.08 662.69 1386.28 664.49C1374.28 668.69 1361.08 671.09 1346.68 671.69C1342.88 688.49 1335.38 701.99 1324.18 712.19C1312.98 722.19 1300.28 727.19 1286.08 727.19C1274.08 727.19 1263.78 724.29 1255.18 718.49C1246.78 712.69 1240.38 704.99 1235.98 695.39C1231.58 685.79 1229.38 675.39 1229.38 664.19C1229.38 648.99 1232.28 635.49 1238.08 623.69C1243.88 611.69 1251.88 602.39 1262.08 595.79C1272.28 588.99 1283.58 585.59 1295.98 585.59C1311.18 585.59 1323.38 590.89 1332.58 601.49C1341.98 611.89 1347.48 624.79 1349.08 640.19C1358.48 639.59 1369.68 637.59 1382.68 634.19C1384.28 633.79 1385.68 633.59 1386.88 633.59ZM1288.48 695.39C1294.88 695.39 1300.38 692.79 1304.98 687.59C1309.78 682.39 1312.98 674.89 1314.58 665.09C1308.38 660.89 1303.58 655.39 1300.18 648.59C1296.98 641.79 1295.38 634.59 1295.38 626.99C1295.38 623.79 1295.68 620.59 1296.28 617.39H1294.78C1286.78 617.39 1280.08 621.29 1274.68 629.09C1269.48 636.69 1266.88 647.49 1266.88 661.49C1266.88 672.49 1268.98 680.89 1273.18 686.69C1277.58 692.49 1282.68 695.39 1288.48 695.39ZM1390.53 727.19C1382.93 727.19 1377.53 723.19 1374.33 715.19C1371.33 707.19 1369.83 694.39 1369.83 676.79C1369.83 650.79 1373.53 626.09 1380.93 602.69C1382.73 596.89 1385.63 592.69 1389.63 590.09C1393.83 587.29 1399.63 585.89 1407.03 585.89C1411.03 585.89 1413.83 586.39 1415.43 587.39C1417.03 588.39 1417.83 590.29 1417.83 593.09C1417.83 596.29 1416.33 603.49 1413.33 614.69C1411.33 622.69 1409.73 629.69 1408.53 635.69C1407.33 641.69 1406.33 649.09 1405.53 657.89C1412.13 640.69 1419.53 626.69 1427.73 615.89C1435.93 605.09 1443.93 597.39 1451.73 592.79C1459.73 588.19 1467.03 585.89 1473.63 585.89C1486.63 585.89 1493.13 592.39 1493.13 605.39C1493.13 607.99 1492.23 614.29 1490.43 624.29C1488.83 632.29 1488.03 637.29 1488.03 639.29C1488.03 646.29 1490.53 649.79 1495.53 649.79C1501.13 649.79 1508.33 645.39 1517.13 636.59C1519.73 633.99 1522.43 632.69 1525.23 632.69C1527.83 632.69 1529.83 633.89 1531.23 636.29C1532.83 638.49 1533.63 641.49 1533.63 645.29C1533.63 652.69 1531.63 658.49 1527.63 662.69C1522.03 668.49 1515.43 673.49 1507.83 677.69C1500.43 681.69 1492.53 683.69 1484.13 683.69C1473.53 683.69 1465.43 680.99 1459.83 675.59C1454.43 670.19 1451.73 662.89 1451.73 653.69C1451.73 650.69 1452.03 647.69 1452.63 644.69C1453.03 640.69 1453.23 637.99 1453.23 636.59C1453.23 633.39 1452.13 631.79 1449.93 631.79C1446.93 631.79 1442.93 635.19 1437.93 641.99C1433.13 648.59 1428.33 657.39 1423.53 668.39C1418.73 679.39 1414.83 690.99 1411.83 703.19C1409.63 712.59 1407.03 718.99 1404.03 722.39C1401.23 725.59 1396.73 727.19 1390.53 727.19ZM1613.15 667.79C1615.75 667.79 1617.75 668.99 1619.15 671.39C1620.75 673.79 1621.55 677.09 1621.55 681.29C1621.55 688.49 1619.85 694.69 1616.45 699.89C1610.85 708.49 1603.45 715.19 1594.25 719.99C1585.25 724.79 1574.45 727.19 1561.85 727.19C1542.65 727.19 1527.75 721.49 1517.15 710.09C1506.55 698.49 1501.25 682.89 1501.25 663.29C1501.25 649.49 1504.15 636.69 1509.95 624.89C1515.75 612.89 1523.75 603.39 1533.95 596.39C1544.35 589.39 1556.05 585.89 1569.05 585.89C1580.65 585.89 1589.95 589.39 1596.95 596.39C1603.95 603.19 1607.45 612.49 1607.45 624.29C1607.45 638.09 1602.45 649.99 1592.45 659.99C1582.65 669.79 1565.85 677.59 1542.05 683.39C1546.85 692.59 1554.95 697.19 1566.35 697.19C1574.55 697.19 1581.25 695.29 1586.45 691.49C1591.85 687.69 1598.05 681.29 1605.05 672.29C1607.45 669.29 1610.15 667.79 1613.15 667.79ZM1563.95 615.29C1556.55 615.29 1550.25 619.59 1545.05 628.19C1540.05 636.79 1537.55 647.19 1537.55 659.39V659.99C1549.35 657.19 1558.65 652.99 1565.45 647.39C1572.25 641.79 1575.65 635.29 1575.65 627.89C1575.65 624.09 1574.55 621.09 1572.35 618.89C1570.35 616.49 1567.55 615.29 1563.95 615.29Z" fill="white"/>
</svg>
