<svg width="300" height="322" viewBox="0 0 300 322" fill="none" xmlns="http://www.w3.org/2000/svg">
<path d="M37.1125 32.8C42.7125 33.0667 50.0458 33.3333 59.1125 33.6C68.1792 33.8667 77.1125 34 85.9125 34C98.4458 34 110.446 33.8667 121.913 33.6C133.379 33.3333 141.513 33.2 146.313 33.2C167.913 33.2 185.779 36.2667 199.913 42.4C214.313 48.5333 224.979 56.9333 231.913 67.6C239.113 78 242.713 89.7333 242.713 102.8C242.713 110.8 241.113 119.333 237.913 128.4C234.713 137.467 229.113 146 221.113 154C213.379 162 202.713 168.667 189.113 174C175.513 179.067 158.313 181.6 137.513 181.6H99.1125V173.6H133.513C152.446 173.6 166.846 170.667 176.713 164.8C186.846 158.667 193.646 150.667 197.113 140.8C200.846 130.667 202.713 119.467 202.713 107.2C202.713 86.1333 197.646 69.8667 187.513 58.4C177.646 46.6667 160.579 40.8 136.313 40.8C124.046 40.8 116.046 43.0667 112.313 47.6C108.579 52.1333 106.713 61.3333 106.713 75.2V273.6C106.713 283.2 107.513 290.4 109.113 295.2C110.713 300 113.779 303.2 118.313 304.8C123.113 306.4 130.046 307.467 139.113 308V316C132.979 315.467 125.246 315.2 115.913 315.2C106.846 314.933 97.6458 314.8 88.3125 314.8C77.9125 314.8 68.1792 314.933 59.1125 315.2C50.0458 315.2 42.7125 315.467 37.1125 316V308C46.1792 307.467 52.9792 306.4 57.5125 304.8C62.3125 303.2 65.5125 300 67.1125 295.2C68.7125 290.4 69.5125 283.2 69.5125 273.6V75.2C69.5125 65.3333 68.7125 58.1333 67.1125 53.6C65.5125 48.8 62.3125 45.6 57.5125 44C52.9792 42.1333 46.1792 41.0667 37.1125 40.8V32.8ZM100.713 174.8C115.113 175.333 126.446 176 134.713 176.8C142.979 177.333 149.646 177.867 154.713 178.4C160.046 178.933 165.113 179.6 169.913 180.4C187.779 183.333 200.579 188.8 208.313 196.8C216.313 204.533 222.179 216.667 225.912 233.2L235.913 274C238.579 285.733 241.246 294.267 243.913 299.6C246.846 304.667 251.246 307.067 257.113 306.8C261.646 306.533 265.379 305.067 268.313 302.4C271.513 299.733 274.846 296.133 278.313 291.6L284.313 296C278.713 304.267 272.846 310.667 266.713 315.2C260.846 319.467 252.446 321.6 241.513 321.6C231.646 321.6 222.979 318.667 215.513 312.8C208.046 306.933 202.446 295.467 198.713 278.4L189.913 238.4C187.513 226.933 184.713 217.067 181.513 208.8C178.579 200.267 174.313 193.6 168.713 188.8C163.379 184 155.379 181.6 144.713 181.6H101.513L100.713 174.8Z" fill="#1A9604"/>
</svg>
