<svg width="166" height="189" viewBox="0 0 166 189" fill="none" xmlns="http://www.w3.org/2000/svg">
<path d="M51.4216 57.3159L115.756 57.3129L115.756 42.5242C115.757 24.7872 101.328 10.3578 83.5909 10.3587C74.9988 10.3591 66.9201 13.7056 60.8445 19.7812C54.7685 25.8572 51.422 33.9352 51.4216 42.5273L51.4216 57.3159Z" fill="white"/>
<path d="M52.9271 66.8401L50.1289 66.8402L15.609 174.16L28.7766 167.388L52.9271 66.8401Z" fill="#FFCC00"/>
<path d="M119.109 87.0802C119.724 89.6376 118.149 92.208 115.591 92.823C113.034 93.4373 110.462 91.8622 109.849 89.3047L104.454 66.8378L88.3503 66.8386L88.3493 124.975C88.3495 127.605 86.2175 129.737 83.5866 129.738C80.9567 129.738 78.8246 127.606 78.8248 124.976L78.8262 66.8391L62.7223 66.8398L38.401 168.099L58.2415 178.302L78.8237 167.716L78.8235 144.025C78.8233 142.71 79.3567 141.519 80.2184 140.657C81.0805 139.795 82.2705 139.262 83.5855 139.263C86.2157 139.262 88.3478 141.394 88.3477 144.024L88.3476 167.716L108.928 178.3L128.767 168.095L114.275 107.741C113.873 106.069 114.408 104.39 115.541 103.258C116.141 102.658 116.908 102.211 117.794 101.998C120.351 101.384 122.922 102.959 123.536 105.516L138.391 167.383L151.556 174.153L117.047 66.8372L114.248 66.8374L119.109 87.0802Z" fill="#FFCC00"/>
<path d="M4.47084 187.291C5.93995 188.537 8.01589 188.775 9.72923 187.894L32.897 175.979L56.0633 187.892C57.4304 188.595 59.0525 188.594 60.4193 187.891L83.5861 175.976L106.75 187.889C108.117 188.592 109.74 188.592 111.107 187.889L134.271 175.974L157.435 187.887C159.149 188.767 161.225 188.529 162.694 187.283C164.165 186.037 164.737 184.027 164.147 182.193L125.28 61.3279L125.281 42.5233C125.282 19.5346 106.58 0.83268 83.5917 0.834112C72.4553 0.834643 61.9854 5.17226 54.1109 13.0468C46.2357 20.922 41.8987 31.3912 41.8982 42.5277L41.8969 61.3318L3.01875 182.201C2.42837 184.035 3.0014 186.044 4.47084 187.291ZM50.1291 66.8404L52.9267 66.8403L28.7765 167.388L15.6089 174.16L50.1291 66.8404ZM83.5909 10.3586C101.328 10.3574 115.757 24.7871 115.756 42.5241L115.756 57.3128L51.4213 57.3162L51.422 42.5275C51.4224 33.9355 54.7689 25.8574 60.8449 19.7815C66.9201 13.7055 74.9989 10.359 83.5909 10.3586ZM151.557 174.153L138.391 167.383L123.536 105.516C122.923 102.959 120.351 101.383 117.794 101.998C116.909 102.211 116.142 102.657 115.541 103.257C114.409 104.39 113.874 106.068 114.275 107.74L128.768 168.095L108.928 178.299L88.3479 167.715L88.348 144.024C88.3481 141.394 86.216 139.262 83.5858 139.262C82.2709 139.262 81.0805 139.795 80.2188 140.657C79.357 141.519 78.8239 142.71 78.8238 144.024L78.8241 167.715L58.2418 178.301L38.4013 168.099L62.7226 66.8394L78.8262 66.839L78.8251 124.976C78.825 127.606 80.9571 129.738 83.5869 129.738C86.2172 129.738 88.3495 127.605 88.3496 124.975L88.3507 66.8389L104.455 66.8381L109.849 89.305C110.463 91.8625 113.034 93.4376 115.591 92.8233C118.15 92.2083 119.724 89.6379 119.11 87.0805L114.249 66.8377L117.047 66.8375L151.557 174.153Z" fill="black"/>
</svg>
